<?xml version="1.0" encoding="utf-8"?>
<!-- Generator: Adobe Illustrator 19.0.0, SVG Export Plug-In . SVG Version: 6.00 Build 0)  -->
<svg version="1.1" id="Layer_1" xmlns="http://www.w3.org/2000/svg" xmlns:xlink="http://www.w3.org/1999/xlink" x="0px" y="0px"
	 viewBox="126 259.7 712 291" style="enable-background:new 126 259.7 712 291;" xml:space="preserve">
<style type="text/css">
	.st0{fill:#FFFFFF;}
	.st1{fill:#61DAFB;}
</style>
<g>
	<g>
		<path class="st0" d="M414.5,403.5c0-18.1-22.7-35.3-57.5-45.9c8-35.5,4.5-63.7-11.3-72.7c-3.6-2.1-7.9-3.1-12.5-3.1v12.4
			c2.6,0,4.6,0.5,6.4,1.4c7.6,4.3,10.9,20.9,8.3,42.2c-0.6,5.2-1.6,10.8-2.8,16.4c-10.9-2.7-22.9-4.7-35.4-6.1
			c-7.5-10.3-15.3-19.7-23.2-27.9c18.2-16.9,35.2-26.2,46.8-26.2v-12.4c-15.3,0-35.4,10.9-55.7,29.9c-20.3-18.8-40.4-29.7-55.7-29.7
			v12.4c11.5,0,28.7,9.2,46.8,26c-7.8,8.2-15.6,17.5-23,27.8c-12.6,1.3-24.5,3.4-35.5,6.1c-1.3-5.6-2.2-11-2.9-16.2
			c-2.6-21.3,0.6-37.9,8.1-42.3c1.7-1,3.8-1.4,6.4-1.4V282c-4.7,0-8.9,1-12.6,3.1c-15.7,9-19.2,37.2-11.1,72.5
			c-34.7,10.7-57.3,27.8-57.3,45.9c0,18.1,22.7,35.3,57.5,45.9c-8,35.5-4.5,63.7,11.3,72.7c3.6,2.1,7.9,3.1,12.5,3.1
			c15.3,0,35.4-10.9,55.7-29.9c20.3,18.8,40.4,29.7,55.7,29.7c4.7,0,8.9-1,12.6-3.1c15.7-9,19.2-37.2,11.1-72.5
			C391.9,438.8,414.5,421.6,414.5,403.5L414.5,403.5z M341.9,366.3c-2.1,7.2-4.6,14.6-7.5,22c-2.3-4.5-4.7-8.9-7.3-13.4
			c-2.6-4.5-5.3-8.8-8-13C327,363.1,334.6,364.6,341.9,366.3L341.9,366.3z M316.4,425.7c-4.3,7.5-8.8,14.7-13.4,21.3
			c-8.3,0.7-16.7,1.1-25.2,1.1c-8.4,0-16.8-0.4-25.1-1.1c-4.6-6.6-9.1-13.7-13.5-21.2c-4.2-7.3-8.1-14.7-11.6-22.2
			c3.5-7.5,7.4-14.9,11.5-22.2c4.3-7.5,8.8-14.7,13.4-21.3c8.3-0.7,16.7-1.1,25.2-1.1c8.4,0,16.8,0.4,25.1,1.1
			c4.6,6.6,9.1,13.7,13.5,21.2c4.2,7.3,8.1,14.7,11.6,22.2C324.4,411,320.6,418.4,316.4,425.7L316.4,425.7z M334.4,418.5
			c3,7.5,5.6,14.9,7.7,22.2c-7.3,1.8-15,3.3-23,4.5c2.7-4.3,5.5-8.7,8-13.2C329.7,427.5,332.1,422.9,334.4,418.5L334.4,418.5z
			 M277.9,478c-5.2-5.4-10.4-11.3-15.5-17.8c5,0.2,10.1,0.4,15.3,0.4c5.2,0,10.4-0.1,15.5-0.4C288.2,466.7,283,472.6,277.9,478z
			 M236.4,445.1c-7.9-1.2-15.6-2.6-22.9-4.4c2.1-7.2,4.6-14.6,7.5-22c2.3,4.5,4.7,8.9,7.3,13.4C231,436.6,233.6,440.9,236.4,445.1z
			 M277.6,329.1c5.2,5.4,10.4,11.3,15.5,17.8c-5-0.2-10.1-0.4-15.3-0.4c-5.2,0-10.4,0.1-15.5,0.4
			C267.3,340.4,272.4,334.5,277.6,329.1z M236.3,361.9c-2.7,4.3-5.5,8.7-8,13.2c-2.6,4.5-5,8.9-7.2,13.4c-3-7.5-5.6-14.9-7.7-22.2
			C220.6,364.6,228.3,363.1,236.3,361.9L236.3,361.9z M185.8,431.8c-19.7-8.4-32.5-19.5-32.5-28.2c0-8.8,12.8-19.9,32.5-28.2
			c4.8-2.1,10-3.9,15.4-5.6c3.2,10.9,7.4,22.3,12.5,34c-5.1,11.6-9.3,22.9-12.4,33.8C195.9,435.7,190.7,433.8,185.8,431.8
			L185.8,431.8z M215.8,511.4c-7.6-4.3-10.9-20.9-8.3-42.2c0.6-5.2,1.6-10.8,2.8-16.4c10.9,2.7,22.9,4.7,35.4,6.1
			c7.5,10.3,15.3,19.7,23.2,27.9c-18.2,16.9-35.2,26.2-46.8,26.2C219.6,512.9,217.5,512.4,215.8,511.4L215.8,511.4z M348.1,469
			c2.6,21.3-0.6,37.9-8.1,42.3c-1.7,1-3.8,1.4-6.4,1.4c-11.5,0-28.7-9.2-46.8-26c7.8-8.2,15.6-17.5,23-27.8
			c12.6-1.3,24.5-3.4,35.5-6.1C346.5,458.4,347.5,463.8,348.1,469z M369.6,431.8c-4.8,2.1-10,3.9-15.4,5.6
			c-3.2-10.9-7.4-22.3-12.5-34c5.1-11.6,9.3-22.9,12.4-33.8c5.5,1.7,10.8,3.6,15.7,5.7c19.7,8.4,32.5,19.5,32.5,28.2
			C402.1,412.3,389.3,423.4,369.6,431.8L369.6,431.8z"/>
		<circle class="st0" cx="277.7" cy="403.5" r="25.5"/>
	</g>
	<path class="st1" d="M635.5,177.8"/>
	<g>
		<path class="st0" d="M433.8,316.2c7.2-1.5,17.6-2.3,27.4-2.3c15.3,0,25.1,2.8,32,9c5.6,4.9,8.7,12.5,8.7,21
			c0,14.6-9.2,24.3-20.8,28.2v0.5c8.5,3,13.6,10.8,16.2,22.3c3.6,15.4,6.2,26.1,8.5,30.4h-14.8c-1.8-3.1-4.3-12.6-7.4-26.4
			c-3.3-15.3-9.2-21-22.2-21.5h-13.5v47.9h-14.3V316.2z M448.1,366.6h14.6c15.3,0,24.9-8.4,24.9-21c0-14.3-10.3-20.5-25.4-20.7
			c-6.9,0-11.8,0.7-14.1,1.3V366.6z"/>
		<path class="st0" d="M530.3,388.3c0.3,19.5,12.8,27.6,27.2,27.6c10.3,0,16.6-1.8,22-4.1l2.5,10.3c-5.1,2.3-13.8,4.9-26.4,4.9
			c-24.5,0-39.1-16.1-39.1-40s14.1-42.8,37.3-42.8c25.9,0,32.8,22.8,32.8,37.4c0,3-0.3,5.3-0.5,6.7H530.3z M572.6,377.9
			c0.2-9.2-3.8-23.5-20-23.5c-14.6,0-21,13.5-22.2,23.5H572.6z"/>
		<path class="st0" d="M648.5,425.4l-1.1-10h-0.5c-4.4,6.2-13,11.8-24.3,11.8c-16.1,0-24.3-11.3-24.3-22.8
			c0-19.2,17.1-29.7,47.8-29.5v-1.6c0-6.6-1.8-18.4-18.1-18.4c-7.4,0-15.1,2.3-20.7,5.9l-3.3-9.5c6.6-4.3,16.1-7.1,26.1-7.1
			c24.3,0,30.2,16.6,30.2,32.5v29.7c0,6.9,0.3,13.6,1.3,19H648.5z M646.3,384.8c-15.8-0.3-33.6,2.5-33.6,17.9
			c0,9.4,6.2,13.8,13.6,13.8c10.3,0,16.9-6.6,19.2-13.3c0.5-1.5,0.8-3.1,0.8-4.6V384.8z"/>
		<path class="st0" d="M740.2,422.4c-3.8,2-12.1,4.6-22.8,4.6c-24,0-39.5-16.2-39.5-40.5c0-24.5,16.7-42.2,42.7-42.2
			c8.5,0,16.1,2.1,20,4.1l-3.3,11.2c-3.4-2-8.9-3.8-16.7-3.8c-18.2,0-28.1,13.5-28.1,30c0,18.4,11.8,29.7,27.6,29.7
			c8.2,0,13.6-2.1,17.7-3.9L740.2,422.4z"/>
		<path class="st0" d="M776.6,323.1v22.8h20.7v11h-20.7v42.8c0,9.8,2.8,15.4,10.8,15.4c3.8,0,6.6-0.5,8.4-1l0.7,10.8
			c-2.8,1.1-7.2,2-12.8,2c-6.7,0-12.1-2.1-15.6-6.1c-4.1-4.3-5.6-11.3-5.6-20.7v-43.3h-12.3v-11h12.3v-19L776.6,323.1z"/>
	</g>
	<g>
		<path class="st0" d="M446.6,511.6l-13.1-51.5h7l6.1,26c1.5,6.4,2.9,12.8,3.8,17.8h0.2c0.8-5.1,2.4-11.2,4.2-17.9l6.9-26h7
			l6.3,26.1c1.5,6.1,2.8,12.2,3.6,17.6h0.2c1.1-5.7,2.5-11.4,4.1-17.8l6.8-26h6.8l-14.6,51.5h-7l-6.5-26.8
			c-1.6-6.6-2.7-11.6-3.4-16.8h-0.2c-0.9,5.1-2.1,10.2-4,16.8l-7.3,26.8H446.6z"/>
		<path class="st0" d="M546.9,485.3c0,17.7-10.8,27.1-23.9,27.1c-13.6,0-23.1-10.5-23.1-26.1c0-16.3,10.2-27,23.9-27
			C537.8,459.3,546.9,470,546.9,485.3z M506.9,486.2c0,11,6,20.9,16.4,20.9c10.5,0,16.5-9.7,16.5-21.4c0-10.2-5.3-20.9-16.4-20.9
			C512.4,464.7,506.9,474.9,506.9,486.2z"/>
		<path class="st0" d="M555.5,460.8c3.4-0.7,8.2-1.1,12.8-1.1c7.1,0,11.7,1.3,14.9,4.2c2.6,2.3,4,5.8,4,9.8c0,6.8-4.3,11.3-9.7,13.1
			v0.2c4,1.4,6.3,5,7.6,10.4c1.7,7.2,2.9,12.1,4,14.1h-6.9c-0.8-1.5-2-5.9-3.4-12.3c-1.5-7.1-4.3-9.8-10.3-10h-6.3v22.3h-6.6V460.8z
			 M562.1,484.2h6.8c7.1,0,11.6-3.9,11.6-9.8c0-6.6-4.8-9.5-11.8-9.6c-3.2,0-5.5,0.3-6.6,0.6V484.2z"/>
		<path class="st0" d="M596.6,460.1h6.6v24.8h0.2c1.4-2,2.7-3.8,4-5.5l15.7-19.3h8.3L612.9,482l20.1,29.6h-7.9l-17-25.3l-4.9,5.7
			v19.6h-6.6V460.1z"/>
		<path class="st0" d="M637.1,503.5c3,1.8,7.3,3.4,11.9,3.4c6.8,0,10.8-3.6,10.8-8.8c0-4.8-2.7-7.6-9.7-10.2
			c-8.4-3-13.6-7.3-13.6-14.6c0-8,6.6-14,16.7-14c5.3,0,9.1,1.2,11.4,2.5l-1.8,5.4c-1.7-0.9-5.1-2.4-9.8-2.4c-7,0-9.7,4.2-9.7,7.7
			c0,4.8,3.1,7.2,10.2,9.9c8.7,3.4,13.1,7.6,13.1,15.1c0,7.9-5.9,14.8-18,14.8c-5,0-10.4-1.5-13.1-3.3L637.1,503.5z"/>
		<path class="st0" d="M682.3,460.1v21.5h24.9v-21.5h6.7v51.5h-6.7v-24.1h-24.9v24.1h-6.6v-51.5H682.3z"/>
		<path class="st0" d="M769.4,485.3c0,17.7-10.8,27.1-23.9,27.1c-13.6,0-23.1-10.5-23.1-26.1c0-16.3,10.2-27,23.9-27
			C760.3,459.3,769.4,470,769.4,485.3z M729.5,486.2c0,11,6,20.9,16.4,20.9c10.5,0,16.5-9.7,16.5-21.4c0-10.2-5.3-20.9-16.4-20.9
			C735,464.7,729.5,474.9,729.5,486.2z"/>
		<path class="st0" d="M778.1,460.7c3.2-0.5,7.4-1,12.8-1c6.6,0,11.4,1.5,14.4,4.3c2.8,2.4,4.5,6.2,4.5,10.8c0,4.7-1.4,8.3-4,11
			c-3.5,3.7-9.2,5.7-15.7,5.7c-2,0-3.8-0.1-5.3-0.5v20.6h-6.6V460.7z M784.7,485.5c1.5,0.4,3.3,0.5,5.5,0.5c8,0,12.9-3.9,12.9-11
			c0-6.8-4.8-10.1-12.1-10.1c-2.9,0-5.1,0.2-6.3,0.5V485.5z"/>
	</g>
</g>
</svg>
